<svg width="24" height="24" viewBox="0 0 24 24" fill="none" xmlns="http://www.w3.org/2000/svg">
<path d="M2 12.0005C2 17.5235 6.477 22.0005 12 22.0005C17.523 22.0005 22 17.5235 22 12.0005C22 6.47749 17.523 2.00049 12 2.00049C6.477 2.00049 2 6.47749 2 12.0005Z" stroke="#717279" stroke-width="1.5" stroke-linecap="round" stroke-linejoin="round"/>
<path d="M13.0009 2.05029C13.0009 2.05029 16.0009 6.00029 16.0009 12.0003C16.0009 18.0003 13.0009 21.9503 13.0009 21.9503M11.0009 21.9503C11.0009 21.9503 8.00086 18.0003 8.00086 12.0003C8.00086 6.00029 11.0009 2.05029 11.0009 2.05029M2.63086 15.5003H21.3709M2.63086 8.50029H21.3709" stroke="#717279" stroke-width="1.5" stroke-linecap="round" stroke-linejoin="round"/>
</svg>
