<svg width="32" height="32" viewBox="0 0 32 32" fill="none" xmlns="http://www.w3.org/2000/svg">
<rect width="32" height="32" rx="16" fill="#B3B8C5"/>
<path d="M22.3369 22.2319H19.6698V18.0838C19.6698 17.0946 19.652 15.8212 18.2827 15.8212C16.8936 15.8212 16.6811 16.899 16.6811 18.0117V22.2316H14.014V13.7013H16.5744V14.8671H16.6102C16.8665 14.432 17.2367 14.074 17.6816 13.8314C18.1264 13.5887 18.6292 13.4705 19.1364 13.4892C21.8396 13.4892 22.338 15.255 22.338 17.5523L22.3369 22.2319ZM11.0047 12.5353C10.6986 12.5354 10.3994 12.4453 10.1448 12.2764C9.89025 12.1076 9.69185 11.8675 9.57465 11.5867C9.45746 11.3058 9.42675 10.9968 9.48641 10.6986C9.54608 10.4004 9.69344 10.1265 9.90985 9.91145C10.1263 9.69643 10.402 9.54999 10.7022 9.49062C11.0024 9.43126 11.3136 9.46164 11.5965 9.57793C11.8793 9.69423 12.1211 9.8912 12.2912 10.144C12.4613 10.3967 12.5521 10.6939 12.5522 10.9979C12.5522 11.1998 12.5122 11.3996 12.4344 11.5862C12.3567 11.7727 12.2427 11.9421 12.099 12.0849C11.9554 12.2277 11.7847 12.3409 11.597 12.4182C11.4092 12.4955 11.208 12.5353 11.0047 12.5353ZM12.3382 22.2319H9.66842V13.7013H12.3382V22.2319ZM23.6665 7.00122H8.32824C7.98011 6.99732 7.64464 7.13084 7.39558 7.37246C7.14652 7.61407 7.00425 7.944 7 8.28976V23.5864C7.0041 23.9323 7.14629 24.2625 7.39534 24.5044C7.64439 24.7462 7.97994 24.88 8.32824 24.8763H23.6665C24.0155 24.8807 24.352 24.7473 24.602 24.5054C24.852 24.2635 24.9952 23.933 25 23.5864V8.28865C24.995 7.94222 24.8518 7.61191 24.6017 7.3703C24.3517 7.12869 24.0153 6.99554 23.6665 7.00011" fill="#1A1B20"/>
</svg>
