<svg width="42" height="42" viewBox="0 0 42 42" fill="none" xmlns="http://www.w3.org/2000/svg">
<rect x="0.5" y="0.5" width="41" height="41" rx="20.5" fill="white" fill-opacity="0.1"/>
<rect x="0.5" y="0.5" width="41" height="41" rx="20.5" stroke="#DCDDDF"/>
<path fill-rule="evenodd" clip-rule="evenodd" d="M21 26.8476C26.6392 26.8476 29.2481 26.1242 29.5 23.2205C29.5 20.3188 27.6812 20.5054 27.6812 16.9451C27.6812 14.1641 25.0452 11 21 11C16.9548 11 14.3188 14.1641 14.3188 16.9451C14.3188 20.5054 12.5 20.3188 12.5 23.2205C12.753 26.1352 15.3618 26.8476 21 26.8476Z" stroke="#717279" stroke-width="1.5" stroke-linecap="round" stroke-linejoin="round"/>
<path d="M23.3889 29.8574C22.0247 31.3721 19.8967 31.3901 18.5195 29.8574" stroke="#717279" stroke-width="1.5" stroke-linecap="round" stroke-linejoin="round"/>
<rect x="21" y="6.5625" width="10.5" height="10.5" rx="5.25" fill="#DF1C41"/>
</svg>
