<svg width="33" height="32" viewBox="0 0 33 32" fill="none" xmlns="http://www.w3.org/2000/svg">
<path d="M24.3496 14.5293C26.2096 14.268 27.6416 12.6733 27.6456 10.7413C27.6456 8.83729 26.2576 7.25863 24.4376 6.95996" stroke="#4A4B51" stroke-width="2" stroke-linecap="round" stroke-linejoin="round"/>
<path d="M26.8047 19.001C28.606 19.2703 29.8634 19.901 29.8634 21.201C29.8634 22.0956 29.2714 22.677 28.314 23.0423" stroke="#4A4B51" stroke-width="2" stroke-linecap="round" stroke-linejoin="round"/>
<path fill-rule="evenodd" clip-rule="evenodd" d="M16.3487 19.5518C12.0633 19.5518 8.40332 20.2011 8.40332 22.7944C8.40332 25.3864 12.0407 26.0544 16.3487 26.0544C20.634 26.0544 24.2927 25.4118 24.2927 22.8171C24.2927 20.2224 20.6567 19.5518 16.3487 19.5518Z" stroke="#4A4B51" stroke-width="2" stroke-linecap="round" stroke-linejoin="round"/>
<path fill-rule="evenodd" clip-rule="evenodd" d="M16.3489 15.851C19.1609 15.851 21.4409 13.5723 21.4409 10.759C21.4409 7.94699 19.1609 5.66699 16.3489 5.66699C13.5369 5.66699 11.2569 7.94699 11.2569 10.759C11.2462 13.5617 13.5089 15.8417 16.3115 15.851H16.3489Z" stroke="#4A4B51" stroke-width="2" stroke-linecap="round" stroke-linejoin="round"/>
<path d="M8.3458 14.5293C6.48447 14.268 5.0538 12.6733 5.0498 10.7413C5.0498 8.83729 6.4378 7.25863 8.2578 6.95996" stroke="#4A4B51" stroke-width="2" stroke-linecap="round" stroke-linejoin="round"/>
<path d="M5.89167 19.001C4.09034 19.2703 2.83301 19.901 2.83301 21.201C2.83301 22.0956 3.42501 22.677 4.38234 23.0423" stroke="#4A4B51" stroke-width="2" stroke-linecap="round" stroke-linejoin="round"/>
</svg>
