<svg width="29" height="28" viewBox="0 0 29 28" fill="none" xmlns="http://www.w3.org/2000/svg">
<path d="M2.98156 1.00058C1.88099 0.474862 0.671848 1.48058 0.986134 2.65886L3.29013 11.268C3.34787 11.4844 3.46791 11.679 3.63533 11.8277C3.80275 11.9765 4.01018 12.0727 4.23185 12.1046L15.5278 13.7183C15.8547 13.764 15.8547 14.2371 15.5278 14.284L4.23299 15.8966C4.01132 15.9284 3.8039 16.0247 3.63648 16.1734C3.46905 16.3221 3.34902 16.5168 3.29128 16.7331L0.986134 25.3469C0.671848 26.524 1.88099 27.5297 2.98156 27.0051L27.5507 15.292C28.6353 14.7754 28.6353 13.2303 27.5507 12.7126L2.98156 1.00058Z" fill="white"/>
</svg>
