<svg width="32" height="32" viewBox="0 0 32 32" fill="none" xmlns="http://www.w3.org/2000/svg">
<rect width="32" height="32" rx="16" fill="#B3B8C5"/>
<g clip-path="url(#clip0_3106_2852)">
<path d="M21.6291 11.4075C20.7118 10.8105 20.0503 9.85492 19.8437 8.74154C19.7992 8.50104 19.7745 8.25329 19.7745 8H16.8476L16.8429 19.7128C16.7938 21.0245 15.7125 22.0773 14.3875 22.0773C13.9754 22.0773 13.5876 21.9746 13.246 21.795C12.4628 21.3835 11.9269 20.564 11.9269 19.6207C11.9269 18.266 13.0308 17.1637 14.387 17.1637C14.6403 17.1637 14.8832 17.2055 15.113 17.2771V14.2935C14.8751 14.2611 14.6334 14.2411 14.387 14.2411C11.4166 14.2411 9 16.6541 9 19.6207C9 21.4407 9.91044 23.0513 11.3 24.0252C12.175 24.6388 13.2396 25 14.3875 25C17.3579 25 19.7745 22.5869 19.7745 19.6207V13.6812C20.9223 14.5037 22.329 14.9886 23.8467 14.9886V12.0659C23.0293 12.0659 22.2679 11.8233 21.6291 11.4075Z" fill="#38393D"/>
</g>
<defs>
<clipPath id="clip0_3106_2852">
<rect width="14.8467" height="17" fill="white" transform="translate(9 8)"/>
</clipPath>
</defs>
</svg>
