<svg width="32" height="32" viewBox="0 0 32 32" fill="none" xmlns="http://www.w3.org/2000/svg">
<rect width="32" height="32" rx="16" fill="#B3B8C5"/>
<path d="M12.6608 24.8036C19.4536 24.8036 23.1683 18.2433 23.1683 12.5544C23.1683 12.368 23.165 12.1826 23.1579 11.9979C23.8789 11.3902 24.5057 10.6319 25 9.7686C24.3383 10.1115 23.6262 10.3423 22.8792 10.4464C23.6417 9.91338 24.227 9.07026 24.5032 8.06517C23.7897 8.55829 22.9995 8.91669 22.1582 9.11019C21.4842 8.27339 20.5248 7.75 19.4625 7.75C17.4231 7.75 15.7693 9.67801 15.7693 12.0545C15.7693 12.3924 15.8017 12.721 15.865 13.0362C12.7957 12.8561 10.0741 11.143 8.25259 8.53814C7.93543 9.17436 7.75255 9.9134 7.75255 10.702C7.75255 12.1956 8.40453 13.5142 9.39596 14.2855C8.79007 14.2637 8.22091 14.0698 7.72344 13.7471C7.72289 13.7652 7.72289 13.7828 7.72289 13.8021C7.72289 15.887 8.99586 17.6278 10.6857 18.0223C10.3753 18.1209 10.0488 18.1738 9.71186 18.1738C9.47427 18.1738 9.24278 18.1465 9.01778 18.0961C9.48794 19.8067 10.8513 21.0515 12.4676 21.0863C11.2037 22.2412 9.61142 22.9291 7.8809 22.9291C7.58318 22.9291 7.28907 22.9093 7 22.8695C8.63441 24.0907 10.5751 24.8033 12.661 24.8033" fill="#1A1B20"/>
</svg>
