<svg width="35" height="35" viewBox="0 0 35 35" fill="none" xmlns="http://www.w3.org/2000/svg">
<path fill-rule="evenodd" clip-rule="evenodd" d="M33.8092 10.7081V24.8535C33.8092 30.0945 30.5293 33.7909 25.2883 33.7909H10.277C5.03602 33.7909 1.77344 30.0945 1.77344 24.8535V10.7081C1.77344 5.46716 5.05338 1.77246 10.277 1.77246H25.2883C30.5293 1.77246 33.8092 5.46716 33.8092 10.7081Z" stroke="#717279" stroke-width="2" stroke-linecap="round" stroke-linejoin="round"/>
<path d="M6.16602 25.513L8.81773 22.7138C9.73924 21.7368 11.2751 21.6899 12.2539 22.6097C12.2834 22.6392 13.8799 24.2618 13.8799 24.2618C14.8431 25.2423 16.4171 25.2579 17.3976 24.2965C17.4618 24.234 21.4481 19.3992 21.4481 19.3992C22.4755 18.1514 24.3202 17.9727 25.5697 19.0018C25.653 19.0712 29.4189 22.936 29.4189 22.936" stroke="#717279" stroke-width="2" stroke-linecap="round" stroke-linejoin="round"/>
<path fill-rule="evenodd" clip-rule="evenodd" d="M14.8984 12.8496C14.8984 14.5312 13.5361 15.8935 11.8545 15.8935C10.1728 15.8935 8.81055 14.5312 8.81055 12.8496C8.81055 11.168 10.1728 9.80566 11.8545 9.80566C13.5361 9.8074 14.8984 11.168 14.8984 12.8496Z" stroke="#717279" stroke-width="2" stroke-linecap="round" stroke-linejoin="round"/>
</svg>
