<svg width="255" height="63" viewBox="0 0 255 63" fill="none" xmlns="http://www.w3.org/2000/svg">
    <path d="M123.347 39.5259H113.926L112.104 46.8136H103.572L111.971 18.3295C112.119 17.6778 112.452 17.1519 112.971 16.752C113.489 16.352 114.089 16.1522 114.771 16.1522H122.502C123.184 16.1522 123.784 16.352 124.302 16.752C124.821 17.1519 125.169 17.6778 125.347 18.3295L133.701 46.8136H125.169L123.347 39.5259ZM121.792 33.4827L119.836 25.6172C119.51 24.0768 119.318 23.0102 119.259 22.4178H118.059C117.851 23.5436 117.644 24.61 117.437 25.6172L115.481 33.4827H121.792Z"
          fill="white"/>
    <path d="M162.632 16.1522H170.231C172.157 16.1522 173.164 17.1446 173.253 19.1294L174.364 46.8136H166.721L165.743 22.5067H165.032L161.299 39.6593C160.973 41.3776 159.892 42.2366 158.055 42.2366H153.345C151.508 42.2366 150.412 41.3776 150.057 39.6593L146.28 22.5067H145.569L144.769 46.8136H137.126L138.192 19.1294C138.281 17.1446 139.288 16.1522 141.214 16.1522H148.679C150.486 16.1522 151.568 17.0261 151.923 18.7738L154.812 32.3715C154.989 33.2899 155.197 34.7712 155.434 36.8154H155.922C155.952 36.6078 156.041 35.9561 156.189 34.8601C156.337 33.764 156.47 32.9195 156.589 32.3272L159.389 18.7738C159.744 17.0261 160.826 16.1522 162.632 16.1522Z"
          fill="white"/>
    <path d="M197.519 39.5259H188.098L186.276 46.8136H177.745L186.143 18.3295C186.291 17.6778 186.624 17.1519 187.143 16.752C187.661 16.352 188.261 16.1522 188.943 16.1522H196.675C197.356 16.1522 197.956 16.352 198.474 16.752C198.993 17.1519 199.341 17.6778 199.519 18.3295L207.873 46.8136H199.341L197.519 39.5259ZM195.964 33.4827L194.009 25.6172C193.682 24.0768 193.49 23.0102 193.431 22.4178H192.231C192.024 23.5436 191.816 24.61 191.609 25.6172L189.654 33.4827H195.964Z"
          fill="white"/>
    <path d="M238.982 16.1522V43.8807C238.982 45.8361 238.019 46.8136 236.094 46.8136H232.139C231.339 46.8136 230.717 46.6284 230.273 46.2581C229.828 45.8879 229.369 45.2584 228.895 44.3696L221.607 31.2163C220.808 29.7053 220.141 28.0315 219.608 26.1949H219.252C219.489 28.0315 219.608 29.7796 219.608 31.4385V46.8136H211.831V19.0848C211.831 17.1297 212.809 16.1522 214.764 16.1522H218.675C219.474 16.1522 220.089 16.3371 220.519 16.7075C220.948 17.0779 221.415 17.7075 221.918 18.5962L228.939 31.2606C229.68 32.5937 230.45 34.2972 231.25 36.3708H231.605C231.398 34.3269 231.28 32.5346 231.25 30.9941V16.1522H238.982Z"
          fill="white"/>
    <path d="M254.139 46.8136H245.873V16.1522H254.139V46.8136Z" fill="white"/>
    <path fill-rule="evenodd" clip-rule="evenodd"
          d="M42.2728 1.2609C42.2728 2.96867 52.5524 38.4067 72.9109 50.2352C71.5672 54.4408 69.4259 58.7144 66.8048 62.1455C58.1515 56.2666 47.7051 52.8299 36.4553 52.8299C25.2058 52.8299 14.7592 56.2666 6.10612 62.1455C3.48497 58.7144 1.34341 54.4408 0 50.2352C20.3585 38.4067 30.6381 2.96867 30.6381 1.2609C32.5348 0.970783 34.4776 0.820312 36.4553 0.820312C38.4333 0.820312 40.3761 0.970783 42.2728 1.2609ZM48.4117 42.3041C48.3981 42.2847 48.3845 42.2656 48.3712 42.2464C43.6092 35.4853 39.6625 27.9289 36.4553 20.2612C33.2481 27.9289 29.3017 35.4853 24.5397 42.2464C24.5262 42.2656 24.5128 42.2847 24.499 42.3038C28.4195 41.5819 32.419 41.2148 36.4553 41.2148C40.4916 41.2148 44.4916 41.5819 48.4117 42.3041Z"
          fill="white"/>
</svg>
