<svg width="77" height="65" viewBox="0 0 77 65" fill="none" xmlns="http://www.w3.org/2000/svg">
    <path fill-rule="evenodd" clip-rule="evenodd"
          d="M44.6436 0.465301C44.6436 2.26884 55.4997 39.6943 77 52.1862C75.581 56.6277 73.3196 61.141 70.5514 64.7645C61.4128 58.5559 50.3806 54.9265 38.4999 54.9265C26.6194 54.9265 15.5869 58.5559 6.44858 64.7645C3.68042 61.141 1.41876 56.6277 0 52.1862C21.5003 39.6943 32.3564 2.26884 32.3564 0.465301C34.3595 0.158909 36.4112 0 38.4999 0C40.5888 0 42.6405 0.158909 44.6436 0.465301ZM51.1268 43.8103C51.1124 43.7898 51.0981 43.7696 51.084 43.7495C46.055 36.6092 41.8869 28.6289 38.4999 20.5312C35.1128 28.6289 30.945 36.6092 25.916 43.7495C25.9017 43.7696 25.8876 43.7898 25.873 43.81C30.0134 43.0476 34.2372 42.6599 38.4999 42.6599C42.7625 42.6599 46.9869 43.0476 51.1268 43.8103Z"
          fill="url(#paint0_linear_24_2335)"/>
    <defs>
        <linearGradient id="paint0_linear_24_2335" x1="38.5" y1="0" x2="38.5" y2="64.7645"
                        gradientUnits="userSpaceOnUse">
            <stop stop-color="white"/>
            <stop offset="1" stop-color="#999999"/>
        </linearGradient>
    </defs>
</svg>
