<svg width="89" height="75" viewBox="0 0 89 75" fill="none" xmlns="http://www.w3.org/2000/svg">
    <path fill-rule="evenodd" clip-rule="evenodd"
          d="M51.5213 0.531772C51.5213 2.59296 63.9282 45.365 88.5 59.6414C86.8783 64.7174 84.2938 69.8754 81.1302 74.0166C70.6861 66.921 58.0778 62.7731 44.4998 62.7731C30.9222 62.7731 18.3136 66.921 7.8698 74.0166C4.7062 69.8754 2.12144 64.7174 0.5 59.6414C25.0718 45.365 37.4787 2.59296 37.4787 0.531772C39.768 0.18161 42.1128 0 44.4998 0C46.8872 0 49.2321 0.18161 51.5213 0.531772ZM58.9306 50.0689C58.9142 50.0455 58.8978 50.0225 58.8817 49.9994C53.1342 41.839 48.3708 32.7187 44.4998 23.4642C40.6289 32.7187 35.8658 41.839 30.1183 49.9994C30.1019 50.0225 30.0858 50.0455 30.0691 50.0686C34.801 49.1973 39.6283 48.7542 44.4998 48.7542C49.3714 48.7542 54.1993 49.1973 58.9306 50.0689Z"
          fill="#4A4A4A"/>
</svg>
