<svg width="53" height="24" viewBox="0 0 53 24" fill="none" xmlns="http://www.w3.org/2000/svg">
<path fill-rule="evenodd" clip-rule="evenodd" d="M7.44743 0C8.67446 3.34144 9.83356 6.70601 11.0129 10.0677C12.2038 6.69541 13.4149 3.33952 14.6463 0L18.3505 10.5172L19.4272 7.81019H20.3897L18.2218 13.6606C17.0367 10.2883 15.8429 6.90305 14.6405 3.50476L7.44165 24H6.17849C8.17729 18.2724 8.36806 17.5946 10.3842 11.8598L7.44888 3.51054L1.2646 21.0777H0C3.19258 11.935 3.91521 9.54306 7.44743 0Z" fill="#639418"/>
<path fill-rule="evenodd" clip-rule="evenodd" d="M52.9104 4.80812V5.92531V6.03226H51.6097V4.70117H52.9104V4.80812ZM21.6581 12.7758H19.3876L18.3759 15.4713H18.2617L21.0843 7.927L24.2913 15.4713H22.7998L21.6566 12.7758H21.6581ZM29.9163 13.6155L31.8212 8.14378H33.1392V15.4944H31.8486V8.39815L29.3281 15.6346H29.2471L26.5676 8.81583C26.5558 8.78348 26.5471 8.75009 26.5416 8.7161V15.4944H26.4332V8.25218V8.14523H27.7701L29.9163 13.6155ZM38.6977 12.7758H36.4286L35.417 15.4713H35.3028L38.1196 7.927L41.3266 15.4713H39.8395L38.6977 12.7758ZM48.6917 13.6228V8.14234H48.8001V15.6273H48.7134L43.6289 8.53544C43.6106 8.50718 43.5942 8.47773 43.5798 8.44729V15.4944H43.4671V8.20448V8.14523H44.8762L48.6816 13.6228H48.6917ZM52.9119 6.66817V15.3802V15.4944H51.6111V6.56267H52.9119V6.66817ZM19.4266 12.6703H21.6147L20.4585 9.92435L19.4309 12.6703H19.4266ZM36.4662 12.6703H38.6529L37.4967 9.92435L36.4662 12.6703Z" fill="#639418"/>
</svg>
