<svg width="21" height="20" viewBox="0 0 21 20" fill="none" xmlns="http://www.w3.org/2000/svg">
<path d="M10.9523 1.80182C13.635 1.80182 13.9527 1.81182 15.0124 1.85991C15.6496 1.86767 16.2808 1.98412 16.8784 2.20418C17.3118 2.37053 17.7054 2.62535 18.0339 2.95224C18.3623 3.27913 18.6184 3.67085 18.7855 4.10219C19.0067 4.69697 19.1237 5.32509 19.1315 5.95924C19.1793 7.01395 19.1898 7.33013 19.1898 10C19.1898 12.6699 19.1798 12.986 19.1315 14.0408C19.1237 14.6749 19.0067 15.303 18.7855 15.8978C18.6184 16.3291 18.3623 16.7209 18.0339 17.0478C17.7054 17.3747 17.3118 17.6295 16.8784 17.7958C16.2808 18.0159 15.6496 18.1323 15.0124 18.1401C13.9532 18.1877 13.6355 18.1982 10.9523 18.1982C8.26913 18.1982 7.95144 18.1882 6.89215 18.1401C6.25496 18.1323 5.62382 18.0159 5.02618 17.7958C4.59278 17.6295 4.19918 17.3747 3.87072 17.0478C3.54225 16.7209 3.28621 16.3291 3.11907 15.8978C2.89794 15.303 2.78094 14.6749 2.77314 14.0408C2.7253 12.986 2.71477 12.6699 2.71477 10C2.71477 7.33013 2.72482 7.01395 2.77314 5.95924C2.78094 5.32509 2.89794 4.69697 3.11907 4.10219C3.28621 3.67085 3.54225 3.27913 3.87072 2.95224C4.19918 2.62535 4.59278 2.37053 5.02618 2.20418C5.62382 1.98412 6.25496 1.86767 6.89215 1.85991C7.95192 1.81229 8.26961 1.80182 10.9523 1.80182ZM10.9523 0C8.22512 0 7.88159 0.011428 6.80985 0.0599971C5.97593 0.0765049 5.15086 0.233646 4.36974 0.524737C3.69967 0.775994 3.09275 1.16974 2.59133 1.67849C2.07967 2.17769 1.6837 2.78206 1.43108 3.44936C1.1386 4.22675 0.9807 5.04788 0.964113 5.87782C0.916268 6.94348 0.904785 7.28537 0.904785 9.99952C0.904785 12.7137 0.916268 13.0556 0.96507 14.1222C0.981657 14.9521 1.13955 15.7733 1.43204 16.5506C1.68438 17.2179 2.08002 17.8222 2.59133 18.3215C3.09302 18.8304 3.70028 19.2241 4.3707 19.4753C5.15182 19.7664 5.97689 19.9235 6.81081 19.94C7.88254 19.9876 8.22464 20 10.9533 20C13.6819 20 14.024 19.9886 15.0957 19.94C15.9296 19.9235 16.7547 19.7664 17.5358 19.4753C18.203 19.2179 18.809 18.8247 19.3148 18.3209C19.8207 17.8172 20.2153 17.2139 20.4735 16.5497C20.766 15.7723 20.9239 14.9512 20.9405 14.1212C20.9883 13.0556 20.9998 12.7137 20.9998 9.99952C20.9998 7.28537 20.9883 6.94348 20.9395 5.87686C20.9229 5.04693 20.765 4.2258 20.4726 3.44841C20.2202 2.78119 19.8246 2.17684 19.3133 1.67754C18.8116 1.16867 18.2043 0.774919 17.5339 0.523785C16.7528 0.232694 15.9277 0.0755526 15.0938 0.0590448C14.023 0.0114281 13.6795 0 10.9523 0Z" fill="#F0F0F0"/>
<path d="M10.9507 4.86475C9.93017 4.86475 8.93261 5.16591 8.08411 5.73015C7.23562 6.29439 6.57429 7.09637 6.18377 8.03466C5.79325 8.97296 5.69107 10.0054 5.89016 11.0015C6.08924 11.9976 6.58065 12.9126 7.30224 13.6307C8.02383 14.3489 8.94319 14.8379 9.94406 15.0361C10.9449 15.2342 11.9824 15.1325 12.9252 14.7439C13.868 14.3552 14.6738 13.697 15.2407 12.8526C15.8077 12.0081 16.1103 11.0153 16.1103 9.99974C16.1103 8.63786 15.5667 7.33175 14.5991 6.36875C13.6314 5.40575 12.3191 4.86475 10.9507 4.86475ZM10.9507 13.3329C10.2883 13.3329 9.64072 13.1374 9.08995 12.7712C8.53919 12.4049 8.10991 11.8843 7.85642 11.2753C7.60293 10.6662 7.53661 9.99604 7.66584 9.34947C7.79507 8.7029 8.11404 8.10898 8.58243 7.64283C9.05082 7.17668 9.64759 6.85922 10.2973 6.73061C10.9469 6.602 11.6203 6.66801 12.2323 6.92029C12.8443 7.17257 13.3674 7.59979 13.7354 8.14793C14.1034 8.69606 14.2998 9.3405 14.2998 9.99974C14.2998 10.8838 13.947 11.7316 13.3189 12.3567C12.6908 12.9817 11.8389 13.3329 10.9507 13.3329Z" fill="#F0F0F0"/>
<path d="M16.3156 5.8618C16.9815 5.8618 17.5213 5.32457 17.5213 4.66186C17.5213 3.99915 16.9815 3.46191 16.3156 3.46191C15.6497 3.46191 15.1099 3.99915 15.1099 4.66186C15.1099 5.32457 15.6497 5.8618 16.3156 5.8618Z" fill="#F0F0F0"/>
</svg>
