<svg width="100" height="24" viewBox="0 0 100 24" fill="none" xmlns="http://www.w3.org/2000/svg">
    <g clip-path="url(#clip0_647_2767)">
        <path d="M48.217 15.1447H44.5344L43.8222 17.9936H40.4871L43.77 6.85893C43.828 6.60417 43.9583 6.3986 44.1609 6.2423C44.3636 6.08591 44.5981 6.00781 44.8645 6.00781H47.8869C48.1533 6.00781 48.3878 6.08591 48.5904 6.2423C48.7931 6.3986 48.9292 6.60417 48.9987 6.85893L52.2644 17.9936H48.9292L48.217 15.1447ZM47.6091 12.7824L46.8447 9.70775C46.7173 9.10558 46.6421 8.68863 46.6189 8.45709H46.1499C46.0688 8.89716 45.9878 9.31401 45.9067 9.70775L45.1424 12.7824H47.6091Z"
              fill="#38393D"/>
        <path d="M63.574 6.00781H66.5444C67.2971 6.00781 67.6909 6.39575 67.7256 7.17162L68.1599 17.9936H65.1722L64.7899 8.49181H64.5121L63.0529 15.1969C62.9255 15.8686 62.5028 16.2044 61.7848 16.2044H59.9435C59.2256 16.2044 58.7971 15.8686 58.6581 15.1969L57.1816 8.49181H56.9038L56.5911 17.9936H53.6033L54.0202 7.17162C54.0549 6.39575 54.4487 6.00781 55.2013 6.00781H58.1196C58.826 6.00781 59.2487 6.34942 59.3877 7.03263L60.5167 12.348C60.5863 12.7071 60.6673 13.2861 60.76 14.0852H60.951C60.9626 14.004 60.9973 13.7493 61.0553 13.3208C61.1132 12.8924 61.1652 12.5623 61.2117 12.3307L62.3059 7.03263C62.4449 6.34942 62.8677 6.00781 63.574 6.00781Z"
              fill="#38393D"/>
        <path d="M77.2113 15.1447H73.5288L72.8166 17.9936H69.4814L72.7644 6.85893C72.8224 6.60417 72.9526 6.3986 73.1553 6.2423C73.3579 6.08591 73.5924 6.00781 73.8588 6.00781H76.8813C77.1477 6.00781 77.3822 6.08591 77.5848 6.2423C77.7874 6.3986 77.9235 6.60417 77.993 6.85893L81.2587 17.9936H77.9235L77.2113 15.1447ZM76.6033 12.7824L75.8391 9.70775C75.7116 9.10558 75.6364 8.68863 75.6133 8.45709H75.1443C75.0632 8.89716 74.9821 9.31401 74.901 9.70775L74.1368 12.7824H76.6033Z"
              fill="#38393D"/>
        <path d="M93.4193 6.00781V16.8471C93.4193 17.6114 93.043 17.9936 92.2902 17.9936H90.7443C90.4316 17.9936 90.1885 17.9212 90.0148 17.7764C89.841 17.6317 89.6614 17.3856 89.4762 17.0382L86.6275 11.8965C86.3148 11.3058 86.0543 10.6515 85.8458 9.93358H85.7069C85.7994 10.6515 85.8458 11.3348 85.8458 11.9833V17.9936H82.8059V7.15421C82.8059 6.38994 83.188 6.00781 83.9524 6.00781H85.481C85.7936 6.00781 86.034 6.08011 86.2019 6.22489C86.3698 6.36968 86.5522 6.61578 86.7491 6.96319L89.4935 11.9138C89.7831 12.4349 90.0842 13.1008 90.3969 13.9114H90.5358C90.4548 13.1124 90.4084 12.4118 90.3969 11.8096V6.00781H93.4193Z"
              fill="#38393D"/>
        <path d="M99.3443 17.9936H96.1133V6.00781H99.3443V17.9936Z" fill="#38393D"/>
        <path fill-rule="evenodd" clip-rule="evenodd"
              d="M16.5247 0.185901C16.5247 0.853475 20.543 14.7064 28.5013 19.3302C27.976 20.9742 27.139 22.6448 26.1144 23.986C22.7317 21.6879 18.6482 20.3445 14.2506 20.3445C9.85308 20.3445 5.76944 21.6879 2.38692 23.986C1.3623 22.6448 0.525148 20.9742 0 19.3302C7.95826 14.7064 11.9766 0.853475 11.9766 0.185901C12.718 0.0724916 13.4775 0.0136719 14.2506 0.0136719C15.0238 0.0136719 15.7832 0.0724916 16.5247 0.185901ZM18.9244 16.2299C18.9191 16.2223 18.9138 16.2149 18.9086 16.2074C17.0471 13.5644 15.5043 10.6106 14.2506 7.61321C12.9969 10.6106 11.4542 13.5644 9.59272 16.2074C9.58741 16.2149 9.5822 16.2223 9.57679 16.2298C11.1093 15.9476 12.6728 15.8041 14.2506 15.8041C15.8284 15.8041 17.392 15.9476 18.9244 16.2299Z"
              fill="#38393D"/>
    </g>
    <defs>
        <clipPath id="clip0_647_2767">
            <rect width="99.3443" height="24" fill="white"/>
        </clipPath>
    </defs>
</svg>
