<svg width="255" height="62" viewBox="0 0 255 62" fill="none" xmlns="http://www.w3.org/2000/svg">
<path d="M123.347 39.043H113.926L112.104 46.3307H103.572L111.971 17.8466C112.119 17.1949 112.452 16.669 112.971 16.2691C113.489 15.8691 114.089 15.6693 114.771 15.6693H122.502C123.184 15.6693 123.784 15.8691 124.302 16.2691C124.821 16.669 125.169 17.1949 125.347 17.8466L133.701 46.3307H125.169L123.347 39.043ZM121.792 32.9998L119.836 25.1343C119.51 23.5939 119.318 22.5272 119.259 21.9349H118.059C117.851 23.0607 117.644 24.1271 117.437 25.1343L115.481 32.9998H121.792Z" fill="#D9DCE9"/>
<path d="M162.632 15.6693H170.231C172.157 15.6693 173.164 16.6617 173.253 18.6465L174.364 46.3307H166.721L165.743 22.0237H165.032L161.299 39.1764C160.973 40.8947 159.892 41.7537 158.055 41.7537H153.345C151.508 41.7537 150.412 40.8947 150.057 39.1764L146.28 22.0237H145.569L144.769 46.3307H137.126L138.192 18.6465C138.281 16.6617 139.288 15.6693 141.214 15.6693H148.679C150.486 15.6693 151.568 16.5432 151.923 18.2909L154.812 31.8886C154.989 32.807 155.197 34.2883 155.434 36.3325H155.922C155.952 36.1249 156.041 35.4732 156.189 34.3772C156.337 33.2811 156.47 32.4366 156.589 31.8443L159.389 18.2909C159.744 16.5432 160.826 15.6693 162.632 15.6693Z" fill="#D9DCE9"/>
<path d="M197.519 39.043H188.098L186.276 46.3307H177.745L186.143 17.8466C186.291 17.1949 186.624 16.669 187.143 16.2691C187.661 15.8691 188.261 15.6693 188.943 15.6693H196.675C197.356 15.6693 197.956 15.8691 198.474 16.2691C198.993 16.669 199.341 17.1949 199.519 17.8466L207.873 46.3307H199.341L197.519 39.043ZM195.964 32.9998L194.009 25.1343C193.682 23.5939 193.49 22.5272 193.431 21.9349H192.231C192.024 23.0607 191.816 24.1271 191.609 25.1343L189.654 32.9998H195.964Z" fill="#D9DCE9"/>
<path d="M238.982 15.6693V43.3978C238.982 45.3532 238.019 46.3307 236.094 46.3307H232.139C231.339 46.3307 230.717 46.1455 230.273 45.7752C229.828 45.405 229.369 44.7755 228.895 43.8867L221.607 30.7334C220.808 29.2224 220.141 27.5486 219.608 25.712H219.252C219.489 27.5486 219.608 29.2966 219.608 30.9556V46.3307H211.831V18.6019C211.831 16.6468 212.809 15.6693 214.764 15.6693H218.675C219.474 15.6693 220.089 15.8542 220.519 16.2246C220.948 16.595 221.415 17.2245 221.918 18.1133L228.939 30.7777C229.68 32.1108 230.45 33.8143 231.25 35.8879H231.605C231.398 33.844 231.28 32.0517 231.25 30.5112V15.6693H238.982Z" fill="#D9DCE9"/>
<path d="M254.139 46.3307H245.873V15.6693H254.139V46.3307Z" fill="#D9DCE9"/>
<path fill-rule="evenodd" clip-rule="evenodd" d="M42.2728 0.777993C42.2728 2.48576 52.5524 37.9238 72.9109 49.7523C71.5672 53.9579 69.4259 58.2315 66.8048 61.6626C58.1515 55.7837 47.7051 52.347 36.4553 52.347C25.2058 52.347 14.7592 55.7837 6.10612 61.6626C3.48497 58.2315 1.34341 53.9579 0 49.7523C20.3585 37.9238 30.6381 2.48576 30.6381 0.777993C32.5348 0.487873 34.4776 0.337402 36.4553 0.337402C38.4333 0.337402 40.3761 0.487873 42.2728 0.777993ZM48.4117 41.8212C48.3981 41.8018 48.3845 41.7827 48.3712 41.7635C43.6092 35.0024 39.6625 27.446 36.4553 19.7783C33.2481 27.446 29.3017 35.0024 24.5397 41.7635C24.5262 41.7827 24.5128 41.8018 24.499 41.8209C28.4195 41.099 32.419 40.7319 36.4553 40.7319C40.4916 40.7319 44.4916 41.099 48.4117 41.8212Z" fill="#D9DCE9"/>
</svg>
