<svg width="93" height="93" viewBox="0 0 93 93" fill="none" xmlns="http://www.w3.org/2000/svg">
<rect x="7.2832" y="7.30444" width="78.887" height="78.887" rx="39.4435" fill="#E5F9BC"/>
<rect x="7.2832" y="7.30444" width="78.887" height="78.887" rx="39.4435" stroke="#EFFFD0" stroke-width="13.1478"/>
<path d="M51.3285 34.6072L62.3415 52.9501C63.9241 55.5846 63.1468 59.0507 60.6043 60.6909C59.7515 61.2445 58.7565 61.5391 57.7397 61.5389H35.7122C32.7194 61.5389 30.292 59.0244 30.292 55.9199C30.292 54.8697 30.5763 53.8425 31.1104 52.9501L42.125 34.6072C43.7061 31.9727 47.0489 31.1658 49.5914 32.806C50.2948 33.2596 50.8897 33.8759 51.3285 34.6072ZM46.7268 54.965C47.1627 54.965 47.5807 54.7919 47.8889 54.4836C48.1971 54.1754 48.3703 53.7574 48.3703 53.3215C48.3703 52.8856 48.1971 52.4676 47.8889 52.1594C47.5807 51.8512 47.1627 51.678 46.7268 51.678C46.2909 51.678 45.8729 51.8512 45.5647 52.1594C45.2564 52.4676 45.0833 52.8856 45.0833 53.3215C45.0833 53.7574 45.2564 54.1754 45.5647 54.4836C45.8729 54.7919 46.2909 54.965 46.7268 54.965ZM46.7268 40.1737C46.2909 40.1737 45.8729 40.3469 45.5647 40.6551C45.2564 40.9633 45.0833 41.3813 45.0833 41.8172V48.3911C45.0833 48.827 45.2564 49.245 45.5647 49.5532C45.8729 49.8614 46.2909 50.0346 46.7268 50.0346C47.1627 50.0346 47.5807 49.8614 47.8889 49.5532C48.1971 49.245 48.3703 48.827 48.3703 48.3911V41.8172C48.3703 41.3813 48.1971 40.9633 47.8889 40.6551C47.5807 40.3469 47.1627 40.1737 46.7268 40.1737Z" fill="#569A00"/>
</svg>
