<svg width="217" height="165" viewBox="0 0 217 165" fill="none" xmlns="http://www.w3.org/2000/svg">
<path opacity="0.4" d="M97.7071 0L97.707 59.0497L156.768 0H217V60.2225L157.939 119.274H217V179.497L156.525 239.962V179.739H97.5024L37.2322 240V179.777H-23L37.2321 119.555L37.2322 60.4644L-23 60.4651L37.4749 0H97.7071ZM96.8787 120.14H37.8171L-21.0009 178.949H38.0606V238L96.3301 179.739H96.2929L96.8786 179.154L96.8787 120.14ZM216.172 120.102H157.111L156.525 120.688L98.2919 178.911H157.354V237.961L216.172 179.153V120.102ZM38.6081 119.312H97.7071L97.707 178.325L156.525 119.517L156.525 60.4644H97.4643L38.6081 119.312ZM216.172 0.828291H157.111L98.2928 59.6361L157.354 59.6368V118.688L216.172 59.8788V0.828291ZM96.8787 0.828291H37.8179L-21.0001 59.6361L38.0606 59.6368V118.688L96.2929 60.4644L96.8786 59.878L96.8787 0.828291Z" fill="#EEEEEE" fill-opacity="0.7"/>
</svg>
