<svg width="32" height="32" viewBox="0 0 32 32" fill="none" xmlns="http://www.w3.org/2000/svg">
<rect width="32" height="32" rx="16" fill="#B3B8C5"/>
<path d="M16.0008 7C13.5566 7 13.2498 7.01069 12.2898 7.05438C11.3317 7.09825 10.6777 7.24995 10.1054 7.47252C9.51346 7.7024 9.01133 8.00992 8.51108 8.51037C8.01045 9.01064 7.70294 9.51279 7.47232 10.1046C7.24919 10.677 7.09731 11.3312 7.05419 12.289C7.01125 13.2491 7 13.556 7 16.0004C7 18.4447 7.01088 18.7505 7.05438 19.7106C7.09844 20.6687 7.25013 21.3228 7.47251 21.895C7.70257 22.487 8.01007 22.9892 8.51052 23.4894C9.01058 23.9901 9.51271 24.2983 10.1043 24.5282C10.6769 24.7508 11.3311 24.9025 12.2891 24.9464C13.2491 24.99 13.5556 25.0007 15.9997 25.0007C18.4442 25.0007 18.75 24.99 19.71 24.9464C20.6681 24.9025 21.3229 24.7508 21.8955 24.5282C22.4873 24.2983 22.9887 23.9901 23.4887 23.4894C23.9894 22.9892 24.2969 22.487 24.5275 21.8952C24.7487 21.3228 24.9006 20.6686 24.9456 19.7108C24.9888 18.7507 25 18.4447 25 16.0004C25 13.556 24.9888 13.2493 24.9456 12.2892C24.9006 11.3311 24.7487 10.677 24.5275 10.1048C24.2969 9.51279 23.9894 9.01064 23.4887 8.51037C22.9881 8.00973 22.4875 7.70222 21.895 7.47252C21.3212 7.24995 20.6668 7.09825 19.7087 7.05438C18.7487 7.01069 18.4431 7 15.998 7H16.0008ZM15.1935 8.62194C15.4331 8.62157 15.7005 8.62194 16.0008 8.62194C18.4039 8.62194 18.6887 8.63057 19.6376 8.67369C20.5151 8.71382 20.9914 8.86045 21.3086 8.98364C21.7287 9.14678 22.0281 9.34178 22.3429 9.6568C22.6579 9.97181 22.8529 10.2718 23.0164 10.6918C23.1396 11.0087 23.2864 11.485 23.3264 12.3625C23.3695 13.3113 23.3789 13.5963 23.3789 15.9983C23.3789 18.4003 23.3695 18.6853 23.3264 19.6341C23.2862 20.5116 23.1396 20.9879 23.0164 21.3048C22.8533 21.7248 22.6579 22.0239 22.3429 22.3387C22.0279 22.6537 21.7288 22.8487 21.3086 23.0118C20.9918 23.1356 20.5151 23.2819 19.6376 23.322C18.6889 23.3651 18.4039 23.3745 16.0008 23.3745C13.5976 23.3745 13.3128 23.3651 12.3641 23.322C11.4865 23.2815 11.0103 23.1348 10.6929 23.0117C10.2728 22.8485 9.97284 22.6535 9.65784 22.3385C9.34284 22.0235 9.14783 21.7242 8.98433 21.304C8.86114 20.9871 8.71433 20.5109 8.67439 19.6333C8.63127 18.6845 8.62264 18.3995 8.62264 15.9961C8.62264 13.5926 8.63127 13.3091 8.67439 12.3603C8.71452 11.4827 8.86114 11.0065 8.98433 10.6892C9.14746 10.2692 9.34284 9.96918 9.65784 9.65417C9.97284 9.33916 10.2728 9.14415 10.6929 8.98064C11.0101 8.85689 11.4865 8.71063 12.3641 8.67032C13.1943 8.63282 13.5161 8.62157 15.1935 8.61969V8.62194ZM20.805 10.1164C20.2088 10.1164 19.725 10.5996 19.725 11.196C19.725 11.7923 20.2088 12.2761 20.805 12.2761C21.4013 12.2761 21.885 11.7923 21.885 11.196C21.885 10.5998 21.4013 10.116 20.805 10.116V10.1164ZM16.0008 11.3783C13.4484 11.3783 11.3789 13.4478 11.3789 16.0004C11.3789 18.5529 13.4484 20.6215 16.0008 20.6215C18.5533 20.6215 20.622 18.5529 20.622 16.0004C20.622 13.4478 18.5531 11.3783 16.0007 11.3783H16.0008ZM16.0008 13.0002C17.6576 13.0002 19.0009 14.3434 19.0009 16.0004C19.0009 17.6572 17.6576 19.0005 16.0008 19.0005C14.3439 19.0005 13.0008 17.6572 13.0008 16.0004C13.0008 14.3434 14.3439 13.0002 16.0008 13.0002Z" fill="#1A1B20"/>
</svg>
