<svg width="122" height="122" viewBox="0 0 122 122" fill="none" xmlns="http://www.w3.org/2000/svg">
    <path d="M61 0.625C77.0124 0.625 92.3691 6.98592 103.692 18.3084C115.014 29.6309 121.375 44.9876 121.375 61C121.375 77.0124 115.014 92.3691 103.692 103.692C92.3691 115.014 77.0124 121.375 61 121.375C44.9876 121.375 29.6309 115.014 18.3084 103.692C6.98592 92.3691 0.625 77.0124 0.625 61C0.625 44.9876 6.98592 29.6309 18.3084 18.3084C29.6309 6.98592 44.9876 0.625 61 0.625ZM53.479 72.9111L40.0671 59.4906C39.5863 59.0098 39.0155 58.6284 38.3873 58.3682C37.7591 58.108 37.0858 57.9741 36.4058 57.9741C35.7258 57.9741 35.0525 58.108 34.4243 58.3682C33.7961 58.6284 33.2253 59.0098 32.7445 59.4906C31.7735 60.4617 31.2279 61.7787 31.2279 63.1519C31.2279 64.5252 31.7735 65.8422 32.7445 66.8132L49.822 83.8908C50.3014 84.374 50.8718 84.7576 51.5002 85.0193C52.1286 85.2811 52.8026 85.4158 53.4833 85.4158C54.164 85.4158 54.838 85.2811 55.4664 85.0193C56.0948 84.7576 56.6652 84.374 57.1446 83.8908L92.5071 48.5196C92.9944 48.0408 93.382 47.4703 93.6476 46.8409C93.9132 46.2115 94.0516 45.5358 94.0548 44.8527C94.058 44.1696 93.9259 43.4926 93.6661 42.8608C93.4063 42.2289 93.0241 41.6548 92.5413 41.1715C92.0585 40.6882 91.4849 40.3052 90.8534 40.0447C90.2219 39.7842 89.545 39.6513 88.8619 39.6536C88.1788 39.656 87.5029 39.7936 86.8732 40.0585C86.2435 40.3234 85.6725 40.7103 85.1931 41.197L53.479 72.9111Z"
          fill="#10B278"/>
</svg>
