<svg width="32" height="32" viewBox="0 0 32 32" fill="none" xmlns="http://www.w3.org/2000/svg">
<rect width="32" height="32" rx="16" fill="#B3B8C5"/>
<g clip-path="url(#clip0_3106_2846)">
<path d="M27.7061 10.6546C27.4277 9.60965 26.6074 8.7868 25.5656 8.50753C23.6774 8 16.1061 8 16.1061 8C16.1061 8 8.53472 8 6.64654 8.50753C5.60482 8.7868 4.78436 9.60965 4.50594 10.6546C4 12.5485 4 16.5 4 16.5C4 16.5 4 20.4514 4.50594 22.3455C4.78436 23.3903 5.60482 24.2132 6.64654 24.4926C8.53472 25 16.1061 25 16.1061 25C16.1061 25 23.6774 25 25.5656 24.4926C26.6074 24.2132 27.4277 23.3903 27.7061 22.3455C28.2121 20.4514 28.2121 16.5 28.2121 16.5C28.2121 16.5 28.2121 12.5485 27.7061 10.6546Z" fill="#38393D"/>
<path d="M13.6299 20.0859L19.9581 16.4985L13.6299 12.9106V20.0859Z" fill="white"/>
</g>
<defs>
<clipPath id="clip0_3106_2846">
<rect width="24.2121" height="17" fill="white" transform="translate(4 8)"/>
</clipPath>
</defs>
</svg>
